<svg width="13" height="12" viewBox="0 0 13 12" fill="none" xmlns="http://www.w3.org/2000/svg">
<path d="M5.98333 4.3905C6.07092 4.32009 6.12013 4.22458 6.12013 4.125C6.12013 4.02542 6.07092 3.92992 5.98333 3.8595C5.89574 3.78909 5.77694 3.74953 5.65307 3.74953C5.52919 3.74953 5.41039 3.78909 5.3228 3.8595L4.00549 4.9185L3.63511 4.647C3.54308 4.58377 3.42408 4.55177 3.30325 4.55778C3.18242 4.56378 3.06922 4.60731 2.98758 4.67917C2.90594 4.75104 2.86225 4.8456 2.86575 4.94288C2.86924 5.04016 2.91964 5.13254 3.0063 5.2005L3.70601 5.71425C3.79467 5.77914 3.911 5.81409 4.03086 5.81186C4.15073 5.80963 4.26492 5.77037 4.34974 5.70225L5.98239 4.38975L5.98333 4.3905ZM5.98333 7.6095C6.02677 7.64433 6.06123 7.68572 6.08475 7.73128C6.10827 7.77683 6.12037 7.82568 6.12037 7.875C6.12037 7.92433 6.10827 7.97317 6.08475 8.01873C6.06123 8.06428 6.02677 8.10567 5.98333 8.1405L4.35067 9.453C4.26569 9.52124 4.15124 9.56049 4.03115 9.56259C3.91106 9.56468 3.7946 9.52946 3.70601 9.46425L3.0063 8.9505C2.91964 8.88254 2.86924 8.79016 2.86575 8.69288C2.86225 8.5956 2.90594 8.50104 2.98758 8.42918C3.06922 8.35731 3.18242 8.31378 3.30325 8.30778C3.42408 8.30177 3.54308 8.33377 3.63511 8.397L4.00549 8.66925L5.3228 7.6095C5.36613 7.57458 5.41761 7.54687 5.47428 7.52797C5.53095 7.50906 5.59171 7.49933 5.65307 7.49933C5.71442 7.49933 5.77518 7.50906 5.83185 7.52797C5.88852 7.54687 5.94 7.57458 5.98333 7.6095ZM7.51895 8.0625C7.39524 8.0625 7.27659 8.10201 7.18911 8.17234C7.10163 8.24266 7.05248 8.33804 7.05248 8.4375C7.05248 8.53696 7.10163 8.63234 7.18911 8.70267C7.27659 8.77299 7.39524 8.8125 7.51895 8.8125H9.85132C9.97503 8.8125 10.0937 8.77299 10.1812 8.70267C10.2686 8.63234 10.3178 8.53696 10.3178 8.4375C10.3178 8.33804 10.2686 8.24266 10.1812 8.17234C10.0937 8.10201 9.97503 8.0625 9.85132 8.0625H7.51895ZM7.05248 4.6875C7.05248 4.58804 7.10163 4.49266 7.18911 4.42234C7.27659 4.35201 7.39524 4.3125 7.51895 4.3125H9.85132C9.97503 4.3125 10.0937 4.35201 10.1812 4.42234C10.2686 4.49266 10.3178 4.58804 10.3178 4.6875C10.3178 4.78696 10.2686 4.88234 10.1812 4.95267C10.0937 5.02299 9.97503 5.0625 9.85132 5.0625H7.51895C7.39524 5.0625 7.27659 5.02299 7.18911 4.95267C7.10163 4.88234 7.05248 4.78696 7.05248 4.6875ZM5.18659 1.54678e-07C4.89708 -0.00012186 4.61464 0.0719459 4.37821 0.206271C4.14177 0.340596 3.96298 0.530567 3.86648 0.75H2.38776C2.01661 0.75 1.66066 0.868527 1.39822 1.07951C1.13578 1.29048 0.988342 1.57663 0.988342 1.875V10.875C0.988342 11.1734 1.13578 11.4595 1.39822 11.6705C1.66066 11.8815 2.01661 12 2.38776 12H10.7843C11.1554 12 11.5114 11.8815 11.7738 11.6705C12.0362 11.4595 12.1837 11.1734 12.1837 10.875V1.875C12.1837 1.57663 12.0362 1.29048 11.7738 1.07951C11.5114 0.868527 11.1554 0.75 10.7843 0.75H9.30554C9.20904 0.530567 9.03025 0.340596 8.79381 0.206271C8.55738 0.0719459 8.27494 -0.00012186 7.98543 1.54678e-07H5.18659ZM4.72012 1.125C4.72012 1.02554 4.76927 0.930161 4.85675 0.859835C4.94423 0.789509 5.06288 0.75 5.18659 0.75H7.98543C8.10914 0.75 8.22779 0.789509 8.31527 0.859835C8.40275 0.930161 8.4519 1.02554 8.4519 1.125C8.4519 1.22446 8.40275 1.31984 8.31527 1.39017C8.22779 1.46049 8.10914 1.5 7.98543 1.5H5.18659C5.06288 1.5 4.94423 1.46049 4.85675 1.39017C4.76927 1.31984 4.72012 1.22446 4.72012 1.125ZM2.38776 1.5H3.86648C3.96298 1.71943 4.14177 1.9094 4.37821 2.04373C4.61464 2.17805 4.89708 2.25012 5.18659 2.25H7.98543C8.27494 2.25012 8.55738 2.17805 8.79381 2.04373C9.03025 1.9094 9.20904 1.71943 9.30554 1.5H10.7843C10.908 1.5 11.0266 1.53951 11.1141 1.60984C11.2016 1.68016 11.2507 1.77554 11.2507 1.875V10.875C11.2507 10.9745 11.2016 11.0698 11.1141 11.1402C11.0266 11.2105 10.908 11.25 10.7843 11.25H2.38776C2.26404 11.25 2.14539 11.2105 2.05791 11.1402C1.97043 11.0698 1.92129 10.9745 1.92129 10.875V1.875C1.92129 1.77554 1.97043 1.68016 2.05791 1.60984C2.14539 1.53951 2.26404 1.5 2.38776 1.5Z" fill="#49505C"/>
</svg>
