<svg width="22" height="22" viewBox="0 0 22 22" fill="none" xmlns="http://www.w3.org/2000/svg">
<path d="M7.33337 3.66666V14.6667C7.33337 15.1529 7.52653 15.6192 7.87035 15.963C8.21416 16.3068 8.68048 16.5 9.16671 16.5H16.5C16.9863 16.5 17.4526 16.3068 17.7964 15.963C18.1402 15.6192 18.3334 15.1529 18.3334 14.6667V6.6385C18.3333 6.39426 18.2845 6.15249 18.1897 5.92739C18.095 5.70228 17.9562 5.49838 17.7815 5.32766L14.7428 2.35583C14.4003 2.02093 13.9403 1.83339 13.4613 1.83333H9.16671C8.68048 1.83333 8.21416 2.02648 7.87035 2.3703C7.52653 2.71412 7.33337 3.18043 7.33337 3.66666V3.66666Z" stroke="#49505C" stroke-width="2" stroke-linecap="round" stroke-linejoin="round"/>
<path d="M14.6667 16.5V18.3333C14.6667 18.8196 14.4735 19.2859 14.1297 19.6297C13.7859 19.9735 13.3196 20.1667 12.8334 20.1667H5.50002C5.01379 20.1667 4.54747 19.9735 4.20366 19.6297C3.85984 19.2859 3.66669 18.8196 3.66669 18.3333V8.24999C3.66669 7.76376 3.85984 7.29744 4.20366 6.95363C4.54747 6.60981 5.01379 6.41666 5.50002 6.41666H7.33335" stroke="#49505C" stroke-width="2" stroke-linecap="round" stroke-linejoin="round"/>
</svg>
