<svg width="15" height="15" viewBox="0 0 15 15" fill="none" xmlns="http://www.w3.org/2000/svg">
<rect width="15" height="15" fill="white" fill-opacity="0.01"/>
<path fill-rule="evenodd" clip-rule="evenodd" d="M3.12187 3.125H11.8781C12.5669 3.125 13.125 3.68438 13.125 4.37125V11.8787C13.125 12.0425 13.0927 12.2046 13.0301 12.3558C12.9674 12.5071 12.8756 12.6445 12.7598 12.7602C12.644 12.8759 12.5065 12.9677 12.3552 13.0303C12.204 13.0929 12.0418 13.1251 11.8781 13.125H3.12187C2.79129 13.125 2.47424 12.9937 2.24042 12.76C2.00661 12.5263 1.87517 12.2093 1.875 11.8787V4.37125C1.875 3.68313 2.4325 3.125 3.12187 3.125ZM3.125 5.625V11.25C3.125 11.4158 3.19085 11.5747 3.30806 11.6919C3.42527 11.8092 3.58424 11.875 3.75 11.875H11.25C11.4158 11.875 11.5747 11.8092 11.6919 11.6919C11.8092 11.5747 11.875 11.4158 11.875 11.25V5.625H3.125ZM3.75 2.5C3.75 2.33424 3.81585 2.17527 3.93306 2.05806C4.05027 1.94085 4.20924 1.875 4.375 1.875C4.54076 1.875 4.69973 1.94085 4.81694 2.05806C4.93415 2.17527 5 2.33424 5 2.5V3.125H3.75V2.5ZM10 2.5C10 2.33424 10.0658 2.17527 10.1831 2.05806C10.3003 1.94085 10.4592 1.875 10.625 1.875C10.7908 1.875 10.9497 1.94085 11.0669 2.05806C11.1842 2.17527 11.25 2.33424 11.25 2.5V3.125H10V2.5ZM4.375 8.125V6.87437H5.625V8.125H4.375ZM9.375 8.125V6.87437H10.625V8.125H9.375ZM6.875 8.125V6.87437H8.12563V8.125H6.875ZM4.375 10.625V9.375H5.625V10.625H4.375ZM6.875 10.625V9.375H8.12563V10.625H6.875ZM9.375 10.625V9.375H10.625V10.625H9.375Z" fill="#49505C"/>
</svg>
