<svg width="15" height="12" viewBox="0 0 15 12" fill="none" xmlns="http://www.w3.org/2000/svg">
<path d="M8.30653 10.9091H13.1045V9.81818H8.30653V10.9091ZM5.42773 6.54545H13.1045V5.45455H5.42773V6.54545ZM10.2257 2.18182H13.1045V1.09091H10.2257V2.18182ZM14.0641 9.27273V11.4545C14.0641 11.6023 14.0167 11.7301 13.9217 11.8381C13.8267 11.946 13.7143 12 13.5843 12H1.10953C0.979584 12 0.867131 11.946 0.772171 11.8381C0.67721 11.7301 0.62973 11.6023 0.62973 11.4545V9.27273C0.62973 9.125 0.67721 8.99716 0.772171 8.8892C0.867131 8.78125 0.979584 8.72727 1.10953 8.72727H13.5843C13.7143 8.72727 13.8267 8.78125 13.9217 8.8892C14.0167 8.99716 14.0641 9.125 14.0641 9.27273ZM14.0641 4.90909V7.09091C14.0641 7.23864 14.0167 7.36648 13.9217 7.47443C13.8267 7.58239 13.7143 7.63636 13.5843 7.63636H1.10953C0.979584 7.63636 0.867131 7.58239 0.772171 7.47443C0.67721 7.36648 0.62973 7.23864 0.62973 7.09091V4.90909C0.62973 4.76136 0.67721 4.63352 0.772171 4.52557C0.867131 4.41761 0.979584 4.36364 1.10953 4.36364H13.5843C13.7143 4.36364 13.8267 4.41761 13.9217 4.52557C14.0167 4.63352 14.0641 4.76136 14.0641 4.90909ZM14.0641 0.545455V2.72727C14.0641 2.875 14.0167 3.00284 13.9217 3.1108C13.8267 3.21875 13.7143 3.27273 13.5843 3.27273H1.10953C0.979584 3.27273 0.867131 3.21875 0.772171 3.1108C0.67721 3.00284 0.62973 2.875 0.62973 2.72727V0.545455C0.62973 0.397727 0.67721 0.269886 0.772171 0.161932C0.867131 0.0539773 0.979584 0 1.10953 0H13.5843C13.7143 0 13.8267 0.0539773 13.9217 0.161932C14.0167 0.269886 14.0641 0.397727 14.0641 0.545455Z" fill="#495057"/>
</svg>
