<svg width="17" height="14" viewBox="0 0 17 14" fill="none" xmlns="http://www.w3.org/2000/svg">
<path d="M15.1837 11.8147V7.17681C15.1837 6.85413 15.1091 6.53485 14.9644 6.23851C14.8196 5.94218 14.6079 5.67503 14.342 5.45344L9.38941 1.32398C9.13998 1.11593 8.80973 1 8.46647 1C8.1232 1 7.79296 1.11593 7.54353 1.32398L2.59093 5.45344C2.32508 5.67503 2.11331 5.94218 1.96858 6.23851C1.82386 6.53485 1.74923 6.85413 1.74927 7.17681V11.8147C1.74927 12.1291 1.89081 12.4306 2.14275 12.6528C2.3947 12.8751 2.73641 13 3.09271 13H13.8402C14.1965 13 14.5382 12.8751 14.7902 12.6528C15.0421 12.4306 15.1837 12.1291 15.1837 11.8147Z" stroke="#49505C" stroke-width="2" stroke-linecap="round" stroke-linejoin="round"/>
</svg>
