<svg width="13" height="16" viewBox="0 0 13 16" fill="none" xmlns="http://www.w3.org/2000/svg">
<path d="M11.0132 8.94C10.4455 10.002 9.67633 11.06 8.88983 12.01C8.14374 12.9056 7.34597 13.7635 6.5 14.58C5.65401 13.7635 4.85624 12.9056 4.11017 12.01C3.32367 11.06 2.5545 10.002 1.98683 8.94C1.41267 7.867 1.08333 6.862 1.08333 6C1.08333 4.67392 1.65402 3.40215 2.66984 2.46447C3.68566 1.52678 5.06341 1 6.5 1C7.93659 1 9.31434 1.52678 10.3302 2.46447C11.346 3.40215 11.9167 4.67392 11.9167 6C11.9167 6.862 11.5863 7.867 11.0132 8.94ZM6.5 16C6.5 16 13 10.314 13 6C13 4.4087 12.3152 2.88258 11.0962 1.75736C9.87721 0.632141 8.22391 0 6.5 0C4.77609 0 3.12279 0.632141 1.90381 1.75736C0.684819 2.88258 2.56882e-08 4.4087 0 6C0 10.314 6.5 16 6.5 16Z" fill="#83C282"/>
<path d="M6.5 8C5.92536 8 5.37426 7.78929 4.96794 7.41421C4.56161 7.03914 4.33333 6.53043 4.33333 6C4.33333 5.46957 4.56161 4.96086 4.96794 4.58579C5.37426 4.21071 5.92536 4 6.5 4C7.07464 4 7.62574 4.21071 8.03206 4.58579C8.43839 4.96086 8.66667 5.46957 8.66667 6C8.66667 6.53043 8.43839 7.03914 8.03206 7.41421C7.62574 7.78929 7.07464 8 6.5 8ZM6.5 9C7.36195 9 8.1886 8.68393 8.7981 8.12132C9.40759 7.55871 9.75 6.79565 9.75 6C9.75 5.20435 9.40759 4.44129 8.7981 3.87868C8.1886 3.31607 7.36195 3 6.5 3C5.63805 3 4.8114 3.31607 4.2019 3.87868C3.59241 4.44129 3.25 5.20435 3.25 6C3.25 6.79565 3.59241 7.55871 4.2019 8.12132C4.8114 8.68393 5.63805 9 6.5 9Z" fill="#83C282"/>
</svg>
