<svg width="15" height="12" viewBox="0 0 15 12" fill="none" xmlns="http://www.w3.org/2000/svg">
<path d="M8.72673 12H6.20663C6.04873 12 5.89556 11.9533 5.77253 11.8675C5.6495 11.7817 5.56401 11.6621 5.53021 11.5284L5.24843 10.398C4.87254 10.2553 4.5161 10.0768 4.1857 9.8658L2.91387 10.2168C2.76333 10.2584 2.6009 10.2541 2.45355 10.2047C2.3062 10.1552 2.1828 10.0636 2.10384 9.945L0.841017 8.0544C0.762883 7.93568 0.733554 7.79749 0.757827 7.66245C0.7821 7.52741 0.858539 7.4035 0.974638 7.311L1.96122 6.531C1.91635 6.17767 1.91635 5.82113 1.96122 5.4678L0.974638 4.6896C0.858375 4.59706 0.781832 4.47305 0.757555 4.33787C0.733278 4.20269 0.762706 4.06438 0.841017 3.9456L2.10107 2.0538C2.18003 1.93519 2.30343 1.84355 2.45078 1.79411C2.59813 1.74467 2.76056 1.7404 2.9111 1.782L4.18293 2.133C4.35186 2.025 4.52771 1.9242 4.7091 1.833C4.88426 1.7478 5.06427 1.6704 5.24843 1.6014L5.53091 0.4722C5.56454 0.338519 5.64987 0.218813 5.77277 0.132929C5.89567 0.0470459 6.04875 0.00014398 6.20663 0H8.72673C8.88461 0.00014398 9.03769 0.0470459 9.16059 0.132929C9.28349 0.218813 9.36883 0.338519 9.40245 0.4722L9.6877 1.602C10.0631 1.74556 10.4194 1.92401 10.7504 2.1342L12.0229 1.7832C12.1734 1.74175 12.3357 1.7461 12.4829 1.79554C12.6301 1.84497 12.7534 1.93652 12.8323 2.055L14.0923 3.9468C14.253 4.191 14.1976 4.5 13.9587 4.6902L12.9721 5.4702C13.017 5.82353 13.017 6.18007 12.9721 6.5334L13.9587 7.3134C14.1976 7.5042 14.253 7.8126 14.0923 8.0568L12.8323 9.9486C12.7533 10.0672 12.6299 10.1588 12.4826 10.2083C12.3352 10.2577 12.1728 10.262 12.0223 10.2204L10.7504 9.8694C10.4203 10.0802 10.0641 10.2585 9.68839 10.401L9.40245 11.5284C9.36869 11.662 9.28329 11.7815 9.16041 11.8673C9.03752 11.9531 8.88452 11.9999 8.72673 12V12ZM7.46391 3.6C6.72944 3.6 6.02504 3.85286 5.50569 4.30294C4.98633 4.75303 4.69456 5.36348 4.69456 6C4.69456 6.63652 4.98633 7.24697 5.50569 7.69706C6.02504 8.14714 6.72944 8.4 7.46391 8.4C8.19839 8.4 8.90278 8.14714 9.42214 7.69706C9.94149 7.24697 10.2333 6.63652 10.2333 6C10.2333 5.36348 9.94149 4.75303 9.42214 4.30294C8.90278 3.85286 8.19839 3.6 7.46391 3.6V3.6Z" fill="#49505C"/>
</svg>
