<svg width="15" height="12" viewBox="0 0 15 12" fill="none" xmlns="http://www.w3.org/2000/svg">
<path d="M12.7207 3H9.36209V1.2C9.36209 0.54 8.75754 0 8.01865 0H6.67521C5.93632 0 5.33177 0.54 5.33177 1.2V3H1.97317C1.23428 3 0.62973 3.54 0.62973 4.2V10.8C0.62973 11.46 1.23428 12 1.97317 12H12.7207C13.4596 12 14.0641 11.46 14.0641 10.8V4.2C14.0641 3.54 13.4596 3 12.7207 3ZM6.67521 3V1.2H8.01865V4.2H6.67521V3ZM12.7207 10.8H1.97317V4.2H5.33177C5.33177 4.86 5.93632 5.4 6.67521 5.4H8.01865C8.75754 5.4 9.36209 4.86 9.36209 4.2H12.7207V10.8Z" fill="#49505C"/>
</svg>
