<svg width="15" height="12" viewBox="0 0 15 12" fill="none" xmlns="http://www.w3.org/2000/svg">
<path d="M14.1837 12H13.2241V9.85714C13.2233 9.28903 12.9703 8.74438 12.5206 8.34267C12.0708 7.94095 11.4611 7.71497 10.8251 7.71429V6.85714C11.7155 6.85805 12.5692 7.17441 13.1988 7.73682C13.8285 8.29924 14.1827 9.06177 14.1837 9.85714V12ZM10.3453 12H9.38567V9.85714C9.38491 9.28903 9.13191 8.74438 8.68218 8.34267C8.23244 7.94095 7.62269 7.71497 6.98667 7.71429H4.10787C3.47185 7.71497 2.86209 7.94095 2.41236 8.34267C1.96263 8.74438 1.70963 9.28903 1.70887 9.85714V12H0.749268V9.85714C0.750283 9.06177 1.10446 8.29924 1.7341 7.73682C2.36374 7.17441 3.21742 6.85805 4.10787 6.85714H6.98667C7.87711 6.85805 8.7308 7.17441 9.36044 7.73682C9.99008 8.29924 10.3443 9.06177 10.3453 9.85714V12ZM9.38567 0V0.857143C10.0219 0.857143 10.6321 1.08291 11.082 1.48477C11.5319 1.88663 11.7847 2.43168 11.7847 3C11.7847 3.56832 11.5319 4.11337 11.082 4.51523C10.6321 4.91709 10.0219 5.14286 9.38567 5.14286V6C10.2764 6 11.1307 5.68393 11.7606 5.12132C12.3904 4.55871 12.7443 3.79565 12.7443 3C12.7443 2.20435 12.3904 1.44129 11.7606 0.87868C11.1307 0.31607 10.2764 0 9.38567 0V0ZM5.54727 0.857143C6.02175 0.857143 6.48557 0.982819 6.88008 1.21828C7.2746 1.45374 7.58208 1.78841 7.76366 2.17996C7.94523 2.57152 7.99274 3.00238 7.90017 3.41805C7.80761 3.83372 7.57912 4.21554 7.24362 4.51523C6.90811 4.81491 6.48065 5.019 6.01529 5.10168C5.54993 5.18437 5.06757 5.14193 4.62921 4.97974C4.19085 4.81755 3.81618 4.5429 3.55257 4.19051C3.28897 3.83812 3.14827 3.42382 3.14827 3C3.14827 2.43168 3.40102 1.88663 3.85092 1.48477C4.30082 1.08291 4.91101 0.857143 5.54727 0.857143M5.54727 0C4.883 0 4.23365 0.175947 3.68133 0.505591C3.12901 0.835235 2.69853 1.30377 2.44433 1.85195C2.19012 2.40013 2.12361 3.00333 2.2532 3.58527C2.38279 4.16721 2.70267 4.70176 3.17238 5.12132C3.64209 5.54088 4.24053 5.8266 4.89204 5.94236C5.54354 6.05811 6.21885 5.9987 6.83255 5.77164C7.44625 5.54458 7.9708 5.16006 8.33984 4.66671C8.70889 4.17336 8.90587 3.59334 8.90587 3C8.90587 2.20435 8.55202 1.44129 7.92216 0.87868C7.2923 0.31607 6.43802 0 5.54727 0V0Z" fill="white"/>
</svg>
